{
	"asset":{
		"version":"2.0",
		"generator":"Created using the official Cinema 4D glTF Exporter 1.000x284978"
	},
	"scenes":[{
		"nodes":[0,
		3,
		4,
		5]
	}],
	"buffers":[{
		"uri":"data:application/octet-stream;base64,",
		"byteLength":311840
	},
	{
		"uri":"data:application/octet-stream;base64,",
		"byteLength":24096
	},
	{
		"uri":"data:application/octet-stream;base64,",
		"byteLength":24096
	},
	{
		"uri":"data:application/octet-stream;base64,",
		"byteLength":42496
	}],
	"nodes":[{
		"name":"Subdivision Surface.1",
		"translation":[0.0,
		335.42327880859377,
		0.0],
		"rotation":[0.0,
		0.0,
		0.0,
		-1.0],
		"scale":[1.0,
		1.0,
		1.0],
		"children":[1]
	},
	{
		"name":"Cloth Surface",
		"translation":[0.0,
		-335.42327880859377,
		0.0],
		"rotation":[0.0,
		0.0,
		0.0,
		-1.0],
		"scale":[1.0,
		1.0,
		1.0],
		"children":[2]
	},
	{
		"name":"Cylinder",
		"translation":[0.0,
		335.42327880859377,
		0.0],
		"rotation":[0.0,
		0.0,
		0.0,
		-1.0],
		"scale":[1.0,
		1.0,
		1.0],
		"mesh":0
	},
	{
		"name":"Torus.1",
		"translation":[0.0,
		261.194580078125,
		0.0],
		"rotation":[0.0,
		0.0,
		0.0,
		-1.0],
		"scale":[1.0,
		1.0,
		1.0],
		"mesh":1
	},
	{
		"name":"Torus",
		"translation":[0.0,
		245.66290283203126,
		0.0],
		"rotation":[0.0,
		0.0,
		0.0,
		-1.0],
		"scale":[1.0,
		1.0,
		1.0],
		"mesh":2
	},
	{
		"name":"Subdivision Surface",
		"translation":[0.0,
		100.0,
		0.0],
		"rotation":[0.0,
		0.0,
		0.0,
		-1.0],
		"scale":[1.0,
		1.0,
		1.0],
		"mesh":3
	}],
	"meshes":[{
		"name":"Cylinder",
		"primitives":[{
			"attributes":{
				"POSITION":1,
				"NORMAL":2,
				"TEXCOORD_0":3
			},
			"indices":0
		}]
	},
	{
		"name":"Torus.1",
		"primitives":[{
			"attributes":{
				"POSITION":5,
				"NORMAL":6,
				"TEXCOORD_0":7
			},
			"indices":4
		}]
	},
	{
		"name":"Torus",
		"primitives":[{
			"attributes":{
				"POSITION":9,
				"NORMAL":10,
				"TEXCOORD_0":11
			},
			"indices":8
		}]
	},
	{
		"name":"Subdivision Surface",
		"primitives":[{
			"attributes":{
				"POSITION":13,
				"NORMAL":14,
				"TEXCOORD_0":15
			},
			"indices":12
		}]
	}],
	"accessors":[{
		"bufferView":0,
		"type":"SCALAR",
		"componentType":5123,
		"count":40320,
		"byteOffset":0,
		"min":[0],
		"max":[7224]
	},
	{
		"bufferView":1,
		"type":"VEC3",
		"componentType":5126,
		"count":7225,
		"byteOffset":0,
		"min":[-35.140708923339847,
		-80.17677307128906,
		-40.456504821777347],
		"max":[40.428836822509769,
		-14.334149360656739,
		43.62037658691406]
	},
	{
		"bufferView":1,
		"type":"VEC3",
		"componentType":5126,
		"count":7225,
		"byteOffset":12,
		"min":[-1.0,
		-0.7902852892875671,
		-0.9999281167984009],
		"max":[1.0,
		0.9237492680549622,
		0.9998899102210999]
	},
	{
		"bufferView":1,
		"type":"VEC2",
		"componentType":5126,
		"count":7225,
		"byteOffset":24,
		"min":[0.0,
		0.0],
		"max":[1.0,
		0.984375]
	},
	{
		"bufferView":2,
		"type":"SCALAR",
		"componentType":5123,
		"count":3072,
		"byteOffset":0,
		"min":[0],
		"max":[560]
	},
	{
		"bufferView":3,
		"type":"VEC3",
		"componentType":5126,
		"count":561,
		"byteOffset":0,
		"min":[-33.30519485473633,
		-11.101731300354004,
		-33.30519485473633],
		"max":[33.30519485473633,
		11.101731300354004,
		33.30519485473633]
	},
	{
		"bufferView":3,
		"type":"VEC3",
		"componentType":5126,
		"count":561,
		"byteOffset":12,
		"min":[-1.0,
		-0.9999786615371704,
		-1.0],
		"max":[1.0,
		0.9999787211418152,
		1.0]
	},
	{
		"bufferView":3,
		"type":"VEC2",
		"componentType":5126,
		"count":561,
		"byteOffset":24,
		"min":[0.0,
		0.0],
		"max":[1.0,
		1.0]
	},
	{
		"bufferView":4,
		"type":"SCALAR",
		"componentType":5123,
		"count":3072,
		"byteOffset":0,
		"min":[0],
		"max":[560]
	},
	{
		"bufferView":5,
		"type":"VEC3",
		"componentType":5126,
		"count":561,
		"byteOffset":0,
		"min":[-33.30519485473633,
		-11.101731300354004,
		-33.30519485473633],
		"max":[33.30519485473633,
		11.101731300354004,
		33.30519485473633]
	},
	{
		"bufferView":5,
		"type":"VEC3",
		"componentType":5126,
		"count":561,
		"byteOffset":12,
		"min":[-1.0,
		-0.9999786615371704,
		-1.0],
		"max":[1.0,
		0.9999787211418152,
		1.0]
	},
	{
		"bufferView":5,
		"type":"VEC2",
		"componentType":5126,
		"count":561,
		"byteOffset":24,
		"min":[0.0,
		0.0],
		"max":[1.0,
		1.0]
	},
	{
		"bufferView":6,
		"type":"SCALAR",
		"componentType":5123,
		"count":5376,
		"byteOffset":0,
		"min":[0],
		"max":[991]
	},
	{
		"bufferView":7,
		"type":"VEC3",
		"componentType":5126,
		"count":992,
		"byteOffset":0,
		"min":[-104.73863983154297,
		-96.16484069824219,
		-104.73863983154297],
		"max":[104.73863983154297,
		144.84327697753907,
		104.73863983154297]
	},
	{
		"bufferView":7,
		"type":"VEC3",
		"componentType":5126,
		"count":992,
		"byteOffset":12,
		"min":[-0.9997493624687195,
		-0.9999999403953552,
		-0.9997494220733643],
		"max":[0.9997493624687195,
		1.0,
		0.9997494220733643]
	},
	{
		"bufferView":7,
		"type":"VEC2",
		"componentType":5126,
		"count":992,
		"byteOffset":24,
		"min":[0.0390625,
		0.0390625],
		"max":[0.9609375,
		0.9609375]
	}],
	"bufferViews":[{
		"buffer":0,
		"byteOffset":0,
		"byteLength":80640,
		"target":34963
	},
	{
		"buffer":0,
		"byteOffset":80640,
		"byteLength":231200,
		"target":34962,
		"byteStride":32
	},
	{
		"buffer":1,
		"byteOffset":0,
		"byteLength":6144,
		"target":34963
	},
	{
		"buffer":1,
		"byteOffset":6144,
		"byteLength":17952,
		"target":34962,
		"byteStride":32
	},
	{
		"buffer":2,
		"byteOffset":0,
		"byteLength":6144,
		"target":34963
	},
	{
		"buffer":2,
		"byteOffset":6144,
		"byteLength":17952,
		"target":34962,
		"byteStride":32
	},
	{
		"buffer":3,
		"byteOffset":0,
		"byteLength":10752,
		"target":34963
	},
	{
		"buffer":3,
		"byteOffset":10752,
		"byteLength":31744,
		"target":34962,
		"byteStride":32
	}]
}